<svg width="33" height="33" viewBox="0 0 33 33" fill="none" xmlns="http://www.w3.org/2000/svg">
<path d="M29.272 14.162C29.2128 14.8785 28.8976 16.0009 28.3965 17.349C27.9004 18.6837 27.238 20.1979 26.5133 21.6811C25.7885 23.1643 25.005 24.6089 24.2683 25.8052C23.5236 27.0147 22.8513 27.9292 22.3532 28.3874C21.4602 29.2089 19.9823 29.2255 18.0609 28.6768C16.3273 28.1818 14.4097 27.2784 12.5943 26.3978C12.7392 26.1345 12.9391 25.77 13.1761 25.3339C13.6777 24.4111 14.3463 23.1665 15.0137 21.8811C15.6805 20.597 16.3489 19.2667 16.8485 18.1742C17.0979 17.6287 17.3087 17.1349 17.4565 16.7321C17.5303 16.531 17.5911 16.3453 17.6332 16.1829C17.6726 16.0304 17.706 15.86 17.6999 15.7047C17.6905 15.4679 17.5709 15.2756 17.4666 15.145C17.3551 15.0055 17.2094 14.8727 17.051 14.7481C16.7328 14.4979 16.299 14.2311 15.8048 13.9608C14.8121 13.4178 13.5044 12.822 12.212 12.2721C10.9167 11.7209 9.62435 11.2105 8.65671 10.8382C8.20855 10.6657 7.82958 10.5227 7.55162 10.4188C8.87617 7.58052 9.60076 6.37054 10.9504 5.28622C12.2484 4.24341 13.9491 3.92663 15.8713 4.13292C17.7952 4.3394 19.8917 5.06636 21.9076 6.04697C23.9109 7.02143 25.8347 8.35061 27.2174 9.8064C28.6137 11.2764 29.3849 12.7951 29.272 14.162Z" stroke="#1B1B1B"/>
<path d="M26.5093 14.7381C26.4658 15.2639 26.232 16.1019 25.8525 17.123C25.4779 18.1307 24.9773 19.2754 24.429 20.3975C23.8807 21.5195 23.2883 22.6116 22.7321 23.5149C22.1678 24.4313 21.6653 25.1123 21.3007 25.4476C20.9939 25.7299 20.5768 25.8771 20.0314 25.8944C19.4799 25.912 18.828 25.7947 18.1036 25.5765C16.8016 25.1842 15.3675 24.499 14.0138 23.8406C14.1185 23.6428 14.2524 23.3886 14.4064 23.0929C14.7859 22.364 15.2889 21.3817 15.7814 20.3698C16.2729 19.36 16.7582 18.3121 17.0997 17.4549C17.2699 17.0277 17.4095 16.6354 17.4954 16.3127C17.5382 16.1519 17.5712 15.9957 17.5857 15.8538C17.5987 15.7264 17.6044 15.5473 17.5393 15.3782C17.4831 15.2323 17.3866 15.1129 17.3019 15.024C17.2119 14.9296 17.1038 14.8376 16.9882 14.7494C16.7568 14.573 16.4596 14.3852 16.1298 14.1954C15.4681 13.8145 14.6281 13.3988 13.8098 13.0166C12.9893 12.6334 12.1809 12.2792 11.5784 12.0212C11.3444 11.921 11.1411 11.8351 10.9799 11.7675C11.0403 11.5654 11.1308 11.2923 11.2609 10.964C11.5605 10.2077 12.0692 9.16044 12.9017 8.01514C13.5998 7.05467 14.7607 6.79848 16.2608 7.0273C17.7579 7.25567 19.4494 7.95213 20.9918 8.70234C22.501 9.43646 23.9472 10.4366 24.9839 11.528C26.0341 12.6337 26.5907 13.7527 26.5093 14.7381ZM10.8763 12.16C10.8762 12.1602 10.8762 12.1602 10.8762 12.1602L10.8763 12.16Z" stroke="#1B1B1B"/>
<mask id="path-3-inside-1_77_166" fill="white">
<ellipse cx="18.9631" cy="22.0205" rx="0.811582" ry="0.752367" transform="rotate(-154.061 18.9631 22.0205)"/>
</mask>
<path d="M19.1326 22.1029C19.0914 22.1875 19.0218 22.2323 18.9704 22.2479C18.9206 22.263 18.8799 22.2554 18.8548 22.2432L19.7297 20.4447C18.8953 20.0388 17.788 20.2948 17.3341 21.2281L19.1326 22.1029ZM18.8548 22.2432C18.8298 22.231 18.7986 22.2037 18.7798 22.1552C18.7603 22.1051 18.7526 22.0226 18.7937 21.9381L20.5922 22.8129C21.0462 21.8797 20.564 20.8505 19.7297 20.4447L18.8548 22.2432ZM18.7937 21.9381C18.8348 21.8535 18.9045 21.8087 18.9559 21.7931C19.0057 21.778 19.0464 21.7856 19.0715 21.7978L18.1966 23.5963C19.031 24.0022 20.1383 23.7462 20.5922 22.8129L18.7937 21.9381ZM19.0715 21.7978C19.0965 21.81 19.1277 21.8373 19.1465 21.8858C19.166 21.9359 19.1737 22.0183 19.1326 22.1029L17.3341 21.2281C16.8801 22.1613 17.3623 23.1905 18.1966 23.5963L19.0715 21.7978Z" fill="black" mask="url(#path-3-inside-1_77_166)"/>
<mask id="path-5-inside-2_77_166" fill="white">
<ellipse cx="14.8233" cy="11.9748" rx="0.811582" ry="0.752367" transform="rotate(-154.061 14.8233 11.9748)"/>
</mask>
<path d="M14.9927 12.0572C14.9516 12.1418 14.882 12.1866 14.8305 12.2022C14.7808 12.2173 14.7401 12.2097 14.715 12.1975L15.5898 10.399C14.7555 9.99313 13.6482 10.2491 13.1942 11.1824L14.9927 12.0572ZM14.715 12.1975C14.6899 12.1853 14.6588 12.158 14.6399 12.1095C14.6205 12.0594 14.6127 11.9769 14.6539 11.8924L16.4524 12.7672C16.9063 11.834 16.4242 10.8048 15.5898 10.399L14.715 12.1975ZM14.6539 11.8924C14.695 11.8078 14.7647 11.763 14.8161 11.7474C14.8658 11.7323 14.9066 11.7399 14.9316 11.7521L14.0568 13.5506C14.8911 13.9565 15.9984 13.7005 16.4524 12.7672L14.6539 11.8924ZM14.9316 11.7521C14.9567 11.7643 14.9879 11.7916 15.0067 11.8401C15.0261 11.8902 15.0339 11.9727 14.9927 12.0572L13.1942 11.1824C12.7403 12.1156 13.2224 13.1448 14.0568 13.5506L14.9316 11.7521Z" fill="black" mask="url(#path-5-inside-2_77_166)"/>
<mask id="path-7-inside-3_77_166" fill="white">
<ellipse cx="19.3592" cy="17.8634" rx="0.811582" ry="0.752367" transform="rotate(-154.061 19.3592 17.8634)"/>
</mask>
<path d="M19.5287 17.9459C19.4875 18.0304 19.4179 18.0752 19.3664 18.0909C19.3167 18.106 19.276 18.0983 19.2509 18.0861L20.1257 16.2876C19.2914 15.8818 18.1841 16.1378 17.7301 17.071L19.5287 17.9459ZM19.2509 18.0861C19.2258 18.0739 19.1947 18.0466 19.1759 17.9982C19.1564 17.9481 19.1487 17.8656 19.1898 17.781L20.9883 18.6559C21.4423 17.7226 20.9601 16.6935 20.1257 16.2876L19.2509 18.0861ZM19.1898 17.781C19.2309 17.6965 19.3006 17.6516 19.352 17.636C19.4018 17.6209 19.4425 17.6286 19.4675 17.6408L18.5927 19.4393C19.4271 19.8451 20.5344 19.5891 20.9883 18.6559L19.1898 17.781ZM19.4675 17.6408C19.4926 17.653 19.5238 17.6803 19.5426 17.7287C19.5621 17.7788 19.5698 17.8613 19.5287 17.9459L17.7301 17.071C17.2762 18.0043 17.7584 19.0334 18.5927 19.4393L19.4675 17.6408Z" fill="black" mask="url(#path-7-inside-3_77_166)"/>
<mask id="path-9-inside-4_77_166" fill="white">
<ellipse cx="23.5817" cy="16.2354" rx="0.811582" ry="0.752367" transform="rotate(-154.061 23.5817 16.2354)"/>
</mask>
<path d="M23.7512 16.3178C23.71 16.4023 23.6404 16.4472 23.589 16.4628C23.5392 16.4779 23.4985 16.4702 23.4734 16.458L24.3483 14.6595C23.5139 14.2537 22.4066 14.5097 21.9527 15.4429L23.7512 16.3178ZM23.4734 16.458C23.4483 16.4459 23.4172 16.4185 23.3984 16.3701C23.3789 16.32 23.3712 16.2375 23.4123 16.1529L25.2108 17.0278C25.6648 16.0945 25.1826 15.0654 24.3483 14.6595L23.4734 16.458ZM23.4123 16.1529C23.4534 16.0684 23.5231 16.0236 23.5745 16.0079C23.6243 15.9928 23.665 16.0005 23.6901 16.0127L22.8152 17.8112C23.6496 18.217 24.7569 17.961 25.2108 17.0278L23.4123 16.1529ZM23.6901 16.0127C23.7151 16.0249 23.7463 16.0522 23.7651 16.1007C23.7846 16.1508 23.7923 16.2332 23.7512 16.3178L21.9527 15.4429C21.4987 16.3762 21.9809 17.4053 22.8152 17.8112L23.6901 16.0127Z" fill="black" mask="url(#path-9-inside-4_77_166)"/>
<mask id="path-11-inside-5_77_166" fill="white">
<ellipse cx="22.8547" cy="12.5349" rx="0.811582" ry="0.752367" transform="rotate(-154.061 22.8547 12.5349)"/>
</mask>
<path d="M23.0241 12.6173C22.983 12.7018 22.9134 12.7467 22.8619 12.7623C22.8122 12.7774 22.7715 12.7697 22.7464 12.7575L23.6212 10.959C22.7869 10.5532 21.6796 10.8092 21.2256 11.7424L23.0241 12.6173ZM22.7464 12.7575C22.7213 12.7454 22.6902 12.718 22.6713 12.6696C22.6519 12.6195 22.6441 12.537 22.6853 12.4524L24.4838 13.3273C24.9377 12.394 24.4556 11.3649 23.6212 10.959L22.7464 12.7575ZM22.6853 12.4524C22.7264 12.3679 22.7961 12.3231 22.8475 12.3074C22.8972 12.2923 22.938 12.3 22.963 12.3122L22.0882 14.1107C22.9225 14.5165 24.0298 14.2605 24.4838 13.3273L22.6853 12.4524ZM22.963 12.3122C22.9881 12.3244 23.0193 12.3517 23.0381 12.4002C23.0575 12.4503 23.0653 12.5327 23.0241 12.6173L21.2256 11.7424C20.7717 12.6757 21.2538 13.7048 22.0882 14.1107L22.963 12.3122Z" fill="black" mask="url(#path-11-inside-5_77_166)"/>
<mask id="path-13-inside-6_77_166" fill="white">
<ellipse cx="17.0016" cy="9.35325" rx="0.811582" ry="0.752367" transform="rotate(-154.061 17.0016 9.35325)"/>
</mask>
<path d="M17.171 9.43567C17.1299 9.52023 17.0602 9.56505 17.0088 9.58067C16.9591 9.59578 16.9183 9.58813 16.8933 9.57594L17.7681 7.77742C16.9338 7.37158 15.8265 7.62758 15.3725 8.56083L17.171 9.43567ZM16.8933 9.57594C16.8682 9.56375 16.837 9.53643 16.8182 9.48797C16.7988 9.43786 16.791 9.3554 16.8322 9.27084L18.6307 10.1457C19.0846 9.21243 18.6025 8.18327 17.7681 7.77742L16.8933 9.57594ZM16.8322 9.27084C16.8733 9.18627 16.9429 9.14145 16.9944 9.12583C17.0441 9.11072 17.0848 9.11837 17.1099 9.13057L16.2351 10.9291C17.0694 11.3349 18.1767 11.0789 18.6307 10.1457L16.8322 9.27084ZM17.1099 9.13057C17.135 9.14276 17.1661 9.17007 17.185 9.21854C17.2044 9.26864 17.2122 9.35111 17.171 9.43567L15.3725 8.56083C14.9186 9.49408 15.4007 10.5232 16.2351 10.9291L17.1099 9.13057Z" fill="black" mask="url(#path-13-inside-6_77_166)"/>
<path d="M10.6546 25.2208C10.4707 25.6335 10.3157 25.9806 10.2017 26.2355C8.4121 25.3502 6.60435 24.3623 5.19136 23.2858C3.63174 22.0977 2.68005 20.8964 2.60138 19.7104C2.5144 18.399 2.81158 17.3093 3.34629 16.114C3.6161 15.5108 3.94336 14.8873 4.31259 14.1918C4.34185 14.1366 4.37136 14.0811 4.4011 14.0251C4.68664 13.4876 4.99368 12.9097 5.30905 12.2779C5.32213 12.2823 5.33549 12.2867 5.34913 12.2913C5.63616 12.3868 6.04592 12.5251 6.53587 12.6956C7.51647 13.0369 8.81506 13.506 10.0926 14.0192C11.375 14.5344 12.6165 15.0862 13.493 15.5915C13.9358 15.8467 14.254 16.0726 14.4381 16.257C14.502 16.3211 14.5378 16.3685 14.5569 16.3988C14.216 17.1967 13.1221 19.6698 12.088 21.9987C11.5564 23.1959 11.0415 24.353 10.6546 25.2208Z" stroke="#1B1B1B"/>
<path d="M7.23638 14.2373C7.42876 13.8643 7.62115 13.4912 7.80774 13.1178C8.00359 13.1843 8.26117 13.273 8.56201 13.3797C9.26363 13.6284 10.1974 13.9733 11.1309 14.3597C12.0683 14.7477 12.9887 15.1706 13.6717 15.5738C14.015 15.7765 14.2782 15.9625 14.451 16.1242C14.6084 16.2714 14.6328 16.3444 14.6355 16.3463C14.6357 16.4287 14.603 16.6211 14.5024 16.9462C14.4036 17.2658 14.2565 17.6609 14.0738 18.1082C13.7088 19.0016 13.2143 20.0727 12.7145 21.1084C12.2154 22.1428 11.7141 23.1354 11.3374 23.8698C11.1777 24.1812 11.0404 24.4459 10.9354 24.6475C9.65678 24.0089 8.31089 23.2584 7.23889 22.4488C6.64181 21.9979 6.14602 21.5408 5.79542 21.0883C5.44359 20.6343 5.26119 20.2154 5.23589 19.8339C5.1763 18.9355 5.53273 17.808 6.1013 16.5391C6.44588 15.7701 6.84109 15.0038 7.23638 14.2373Z" stroke="#1B1B1B"/>
<mask id="path-17-inside-7_77_166" fill="white">
<ellipse cx="7.72266" cy="16.5533" rx="0.811582" ry="0.752367" transform="rotate(-154.061 7.72266 16.5533)"/>
</mask>
<path d="M7.8921 16.6357C7.85096 16.7203 7.78131 16.7651 7.72988 16.7807C7.68013 16.7958 7.63941 16.7882 7.61434 16.776L8.48918 14.9775C7.65484 14.5716 6.54754 14.8276 6.09358 15.7609L7.8921 16.6357ZM7.61434 16.776C7.58927 16.7638 7.55812 16.7365 7.53929 16.688C7.51983 16.6379 7.51209 16.5554 7.55323 16.4709L9.35174 17.3457C9.80569 16.4125 9.32353 15.3833 8.48918 14.9775L7.61434 16.776ZM7.55323 16.4709C7.59436 16.3863 7.66401 16.3415 7.71544 16.3259C7.76519 16.3108 7.80591 16.3184 7.83098 16.3306L6.95614 18.1291C7.79049 18.535 8.89779 18.279 9.35174 17.3457L7.55323 16.4709ZM7.83098 16.3306C7.85605 16.3428 7.8872 16.3701 7.90603 16.4186C7.92549 16.4687 7.93323 16.5512 7.8921 16.6357L6.09358 15.7609C5.63963 16.6941 6.1218 17.7233 6.95614 18.1291L7.83098 16.3306Z" fill="black" mask="url(#path-17-inside-7_77_166)"/>
<mask id="path-19-inside-8_77_166" fill="white">
<ellipse cx="9.94712" cy="20.1452" rx="0.811582" ry="0.752367" transform="rotate(-154.061 9.94712 20.1452)"/>
</mask>
<path d="M10.1166 20.2276C10.0754 20.3122 10.0058 20.357 9.95434 20.3726C9.90459 20.3877 9.86387 20.3801 9.8388 20.3679L10.7136 18.5694C9.87929 18.1635 8.77199 18.4195 8.31804 19.3528L10.1166 20.2276ZM9.8388 20.3679C9.81373 20.3557 9.78258 20.3284 9.76375 20.2799C9.74429 20.2298 9.73655 20.1474 9.77768 20.0628L11.5762 20.9376C12.0302 20.0044 11.548 18.9752 10.7136 18.5694L9.8388 20.3679ZM9.77768 20.0628C9.81881 19.9782 9.88847 19.9334 9.9399 19.9178C9.98965 19.9027 10.0304 19.9103 10.0554 19.9225L9.1806 21.721C10.0149 22.1269 11.1222 21.8709 11.5762 20.9376L9.77768 20.0628ZM10.0554 19.9225C10.0805 19.9347 10.1117 19.962 10.1305 20.0105C10.15 20.0606 10.1577 20.1431 10.1166 20.2276L8.31804 19.3528C7.86409 20.286 8.34625 21.3152 9.1806 21.721L10.0554 19.9225Z" fill="black" mask="url(#path-19-inside-8_77_166)"/>
</svg>
