<svg width="60" height="40" viewBox="0 0 60 40" fill="none" xmlns="http://www.w3.org/2000/svg">
<path fill-rule="evenodd" clip-rule="evenodd" d="M23.544 32.2487C23.4012 32.2417 23.243 32.2347 23.0681 32.2305C22.0349 32.1983 20.642 32.1983 18.7004 32.1983C16.7573 32.1983 15.3644 32.1983 14.3327 32.2305C14.1577 32.2361 13.9995 32.2417 13.8568 32.2487C14.0334 33.4068 14.619 34.4633 15.5076 35.2266C16.3962 35.99 17.5289 36.4097 18.7004 36.4097C19.8719 36.4097 21.0045 35.99 21.8931 35.2266C22.7817 34.4633 23.3674 33.4068 23.544 32.2487ZM18.7004 39.1978C19.7115 39.1978 20.7127 38.9987 21.6468 38.6117C22.581 38.2248 23.4297 37.6577 24.1447 36.9427C24.8597 36.2277 25.4268 35.379 25.8137 34.4448C26.2007 33.5107 26.3998 32.5095 26.3998 31.4984C26.3998 30.8768 26.3998 30.4387 26.1996 30.1307C25.7251 29.3986 24.1208 29.3986 18.7004 29.3986C11.001 29.3986 11.001 29.3986 11.001 31.4984C11.001 33.5404 11.8122 35.4988 13.2561 36.9427C14.7 38.3866 16.6584 39.1978 18.7004 39.1978ZM42.0436 8.40015H48.7981V25.1989H45.9983V11.1999H44.3534L40.3735 31.7644L37.6241 31.2324L42.0436 8.40015ZM52.225 36.3112C52.8571 36.1903 53.4592 35.9461 53.9968 35.5925C54.5345 35.2389 54.9972 34.7828 55.3586 34.2504C55.72 33.7179 55.973 33.1195 56.1031 32.4892C56.2331 31.859 56.2378 31.2093 56.1167 30.5773L58.8661 30.0509C59.25 32.0565 58.8215 34.1325 57.6747 35.8222C56.528 37.5118 54.757 38.6767 52.7514 39.0606C50.7458 39.4445 48.6698 39.016 46.9801 37.8692C45.2905 36.7225 44.1256 34.9515 43.7417 32.9459L46.4911 32.4195C46.612 33.0516 46.8562 33.6536 47.2098 34.1913C47.5634 34.729 48.0195 35.1917 48.5519 35.5531C49.0844 35.9145 49.6828 36.1675 50.3131 36.2975C50.9433 36.4276 51.593 36.4323 52.225 36.3112Z" fill="white"/>
<path fill-rule="evenodd" clip-rule="evenodd" d="M54.917 26.3376C53.9946 25.6915 52.9159 25.3046 51.7932 25.217C50.6705 25.1294 49.5449 25.3444 48.5334 25.8395C47.522 26.3346 46.6618 27.0919 46.0424 28.0323C45.4229 28.9727 45.0669 30.062 45.0114 31.1868L57.1093 29.0533C56.6489 27.9597 55.889 27.0183 54.917 26.3376ZM49.7234 22.5368C51.819 22.1675 53.9777 22.5442 55.8242 23.6015C57.6708 24.6588 59.0884 26.3298 59.8307 28.324C60.469 30.0347 59.1895 31.5298 57.7504 31.7817L45.3432 33.9712C43.9055 34.2232 42.192 33.2572 42.2046 31.4318C42.2201 29.3039 42.9808 27.2488 44.3544 25.6237C45.7281 23.9987 47.6279 22.9064 49.7234 22.5368ZM27.7997 14.0017L15.2007 14.0017C14.8294 14.0017 14.4733 14.1492 14.2108 14.4117C13.9483 14.6742 13.8008 15.0303 13.8008 15.4016V18.2014H29.1996V15.4016C29.1996 15.0303 29.0521 14.6742 28.7896 14.4117C28.527 14.1492 28.171 14.0017 27.7997 14.0017ZM15.2007 11.2019C14.0868 11.2019 13.0186 11.6444 12.231 12.432C11.4434 13.2196 11.001 14.2878 11.001 15.4016V19.6013C11.001 19.9725 11.1485 20.3286 11.411 20.5911C11.6735 20.8537 12.0296 21.0012 12.4009 21.0012H30.5995C30.9708 21.0012 31.3268 20.8537 31.5894 20.5911C31.8519 20.3286 31.9994 19.9725 31.9994 19.6013V15.4016C31.9994 14.2878 31.5569 13.2196 30.7693 12.432C29.9817 11.6444 28.9135 11.2019 27.7997 11.2019L15.2007 11.2019Z" fill="white"/>
<path fill-rule="evenodd" clip-rule="evenodd" d="M27.7982 20.9984H18.1193C12.5576 20.9984 8.10729 24.6871 7.04337 29.3978H27.6428C27.6982 29.4006 27.7529 29.3849 27.7982 29.353V20.9984ZM18.1193 18.1986C10.3219 18.1986 4 24.1874 4 31.576C4 31.919 4.29398 32.1976 4.65795 32.1976H27.6428C29.2751 32.1976 30.598 30.9446 30.598 29.3978V19.3185C30.598 18.6998 30.0688 18.1986 29.4165 18.1986H18.1193ZM47.3967 2.79979H44.5969C43.8544 2.79979 43.1422 3.09476 42.6172 3.61983C42.0921 4.14489 41.7971 4.85702 41.7971 5.59957C41.7971 6.34212 42.0921 7.05426 42.6172 7.57932C43.1422 8.10438 43.8544 8.39936 44.5969 8.39936H47.3967V2.79979ZM44.5969 0C43.1118 0 41.6875 0.589953 40.6374 1.64008C39.5873 2.6902 38.9973 4.11447 38.9973 5.59957C38.9973 7.08467 39.5873 8.50895 40.6374 9.55907C41.6875 10.6092 43.1118 11.1991 44.5969 11.1991H49.3356C49.8115 11.1991 50.1965 10.8128 50.1965 10.3382V0.860934C50.1965 0.6326 50.1058 0.413618 49.9443 0.252162C49.7829 0.0907049 49.5639 0 49.3356 0H44.5969Z" fill="white"/>
<path d="M33.8818 1.40039L40.7763 2.6127L40.2905 5.37049L33.3975 4.15818L33.8818 1.40039Z" fill="white"/>
<path fill-rule="evenodd" clip-rule="evenodd" d="M43.1942 32.1967H26.3955V29.3969H43.1942V32.1967ZM40.3944 25.1972H27.7954V22.3975H40.3944V25.1972Z" fill="white"/>
<line y1="26" x2="6" y2="26" stroke="white" stroke-width="2"/>
<line y1="30" x2="6" y2="30" stroke="white" stroke-width="2"/>
<line y1="28" x2="2" y2="28" stroke="white" stroke-width="2"/>
</svg>
